# This file uses meters as units for non-parametric coordinates.

mtllib Bucket.mtl
g default
v 82.173439 -100.000000 -26.699772
v 69.900917 -100.000000 -50.785980
v 50.785980 -100.000000 -69.900909
v 26.699764 -100.000000 -82.173447
v -0.000002 -100.000000 -86.402252
v -26.699768 -100.000000 -82.173439
v -50.785969 -100.000000 -69.900894
v -69.900887 -100.000000 -50.785965
v -82.173416 -100.000000 -26.699762
v -86.402237 -100.000000 -0.000002
v -82.173416 -100.000000 26.699760
v -69.900879 -100.000000 50.785957
v -50.785957 -100.000000 69.900871
v -26.699760 -100.000000 82.173409
v -0.000004 -100.000000 86.402222
v 26.699749 -100.000000 82.173401
v 50.785946 -100.000000 69.900864
v 69.900864 -100.000000 50.785950
v 82.173393 -100.000000 26.699760
v 86.402214 -100.000000 -0.000002
v 95.105713 100.000000 -30.901718
v 80.901756 100.000000 -58.778561
v 58.778561 100.000000 -80.901749
v 30.901714 100.000000 -95.105705
v 0.000000 100.000000 -100.000046
v -30.901714 100.000000 -95.105698
v -58.778549 100.000000 -80.901733
v -80.901726 100.000000 -58.778542
v -95.105675 100.000000 -30.901707
v -100.000023 100.000000 0.000000
v -95.105675 100.000000 30.901707
v -80.901718 100.000000 58.778538
v -58.778538 100.000000 80.901711
v -30.901707 100.000000 95.105667
v -0.000003 100.000000 100.000015
v 30.901697 100.000000 95.105659
v 58.778526 100.000000 80.901703
v 80.901703 100.000000 58.778530
v 95.105652 100.000000 30.901701
v 100.000000 100.000000 0.000000
v 0.000000 -100.000000 0.000000
v 77.457565 -88.607758 -25.167492
v 65.889351 -88.607758 -47.871410
v 47.871410 -88.607758 -65.889343
v 25.167484 -88.607758 -77.457565
v -0.000001 -88.607758 -81.443695
v -25.167488 -88.607758 -77.457565
v -47.871399 -88.607758 -65.889336
v -65.889328 -88.607758 -47.871391
v -77.457542 -88.607758 -25.167482
v -81.443672 -88.607758 -0.000002
v -77.457542 -88.607758 25.167480
v -65.889320 -88.607758 47.871387
v -47.871391 -88.607758 65.889313
v -25.167480 -88.607758 77.457535
v -0.000004 -88.607758 81.443665
v 25.167471 -88.607758 77.457527
v 47.871376 -88.607758 65.889305
v 65.889305 -88.607758 47.871380
v 77.457520 -88.607758 25.167480
v 81.443649 -88.607758 -0.000002
v 89.647667 99.914391 -29.128290
v 76.258865 99.914391 -55.405300
v 55.405300 99.914391 -76.258858
v 29.128286 99.914391 -89.647659
v 0.000000 99.914391 -94.261116
v -29.128286 99.914391 -89.647652
v -55.405289 99.914391 -76.258842
v -76.258835 99.914391 -55.405285
v -89.647629 99.914391 -29.128281
v -94.261093 99.914391 0.000000
v -89.647629 99.914391 29.128281
v -76.258827 99.914391 55.405281
v -55.405281 99.914391 76.258820
v -29.128281 99.914391 89.647621
v -0.000003 99.914391 94.261086
v 29.128271 99.914391 89.647614
v 55.405270 99.914391 76.258812
v 76.258812 99.914391 55.405273
v 89.647606 99.914391 29.128275
v 94.261070 99.914391 0.000000
v 0.000000 -88.607758 0.000000
vt 0.648603 0.107966
vt 0.626409 0.064408
vt 0.591842 0.029841
vt 0.548284 0.007647
vt 0.500000 -0.000000
vt 0.451716 0.007647
vt 0.408159 0.029841
vt 0.373591 0.064409
vt 0.351397 0.107966
vt 0.343750 0.156250
vt 0.351397 0.204534
vt 0.373591 0.248091
vt 0.408159 0.282659
vt 0.451716 0.304853
vt 0.500000 0.312500
vt 0.548284 0.304853
vt 0.591841 0.282659
vt 0.626409 0.248091
vt 0.648603 0.204534
vt 0.656250 0.156250
vt 0.375000 0.312500
vt 0.387500 0.312500
vt 0.400000 0.312500
vt 0.412500 0.312500
vt 0.425000 0.312500
vt 0.437500 0.312500
vt 0.450000 0.312500
vt 0.462500 0.312500
vt 0.475000 0.312500
vt 0.487500 0.312500
vt 0.500000 0.312500
vt 0.512500 0.312500
vt 0.525000 0.312500
vt 0.537500 0.312500
vt 0.550000 0.312500
vt 0.562500 0.312500
vt 0.575000 0.312500
vt 0.587500 0.312500
vt 0.600000 0.312500
vt 0.612500 0.312500
vt 0.625000 0.312500
vt 0.375000 0.688440
vt 0.387500 0.688440
vt 0.400000 0.688440
vt 0.412500 0.688440
vt 0.425000 0.688440
vt 0.437500 0.688440
vt 0.450000 0.688440
vt 0.462500 0.688440
vt 0.475000 0.688440
vt 0.487500 0.688440
vt 0.500000 0.688440
vt 0.512500 0.688440
vt 0.525000 0.688440
vt 0.537500 0.688440
vt 0.550000 0.688440
vt 0.562500 0.688440
vt 0.575000 0.688440
vt 0.587500 0.688440
vt 0.600000 0.688440
vt 0.612500 0.688440
vt 0.625000 0.688440
vt 0.500000 0.150000
vt 0.375000 0.312500
vt 0.375000 0.688440
vt 0.387500 0.688440
vt 0.387500 0.312500
vt 0.400000 0.688440
vt 0.400000 0.312500
vt 0.412500 0.688440
vt 0.412500 0.312500
vt 0.425000 0.688440
vt 0.425000 0.312500
vt 0.437500 0.688440
vt 0.437500 0.312500
vt 0.450000 0.688440
vt 0.450000 0.312500
vt 0.462500 0.688440
vt 0.462500 0.312500
vt 0.475000 0.688440
vt 0.475000 0.312500
vt 0.487500 0.688440
vt 0.487500 0.312500
vt 0.500000 0.688440
vt 0.500000 0.312500
vt 0.512500 0.688440
vt 0.512500 0.312500
vt 0.525000 0.688440
vt 0.525000 0.312500
vt 0.537500 0.688440
vt 0.537500 0.312500
vt 0.550000 0.688440
vt 0.550000 0.312500
vt 0.562500 0.688440
vt 0.562500 0.312500
vt 0.575000 0.688440
vt 0.575000 0.312500
vt 0.587500 0.688440
vt 0.587500 0.312500
vt 0.600000 0.688440
vt 0.600000 0.312500
vt 0.612500 0.688440
vt 0.612500 0.312500
vt 0.625000 0.688440
vt 0.625000 0.312500
vt 0.626409 0.064408
vt 0.500000 0.150000
vt 0.648603 0.107966
vt 0.591842 0.029841
vt 0.548284 0.007647
vt 0.500000 -0.000000
vt 0.451716 0.007647
vt 0.408159 0.029841
vt 0.373591 0.064409
vt 0.351397 0.107966
vt 0.343750 0.156250
vt 0.351397 0.204534
vt 0.373591 0.248091
vt 0.408159 0.282659
vt 0.451716 0.304853
vt 0.500000 0.312500
vt 0.548284 0.304853
vt 0.591841 0.282659
vt 0.626409 0.248091
vt 0.648603 0.204534
vt 0.656250 0.156250
vn 0.948866 -0.067832 -0.308304
vn 0.807154 -0.067832 -0.586431
vn 0.807154 -0.067832 -0.586431
vn 0.948866 -0.067832 -0.308304
vn 0.586431 -0.067832 -0.807154
vn 0.586431 -0.067832 -0.807154
vn 0.308305 -0.067832 -0.948866
vn 0.308305 -0.067832 -0.948866
vn 0.000000 -0.067832 -0.997697
vn 0.000000 -0.067832 -0.997697
vn -0.308305 -0.067832 -0.948866
vn -0.308305 -0.067832 -0.948866
vn -0.586432 -0.067832 -0.807153
vn -0.586432 -0.067832 -0.807153
vn -0.807154 -0.067832 -0.586431
vn -0.807154 -0.067832 -0.586431
vn -0.948866 -0.067832 -0.308305
vn -0.948866 -0.067832 -0.308305
vn -0.997697 -0.067832 0.000000
vn -0.997697 -0.067832 0.000000
vn -0.948866 -0.067832 0.308305
vn -0.948866 -0.067832 0.308305
vn -0.807154 -0.067832 0.586432
vn -0.807154 -0.067832 0.586432
vn -0.586431 -0.067832 0.807154
vn -0.586431 -0.067832 0.807154
vn -0.308305 -0.067832 0.948866
vn -0.308305 -0.067832 0.948866
vn 0.000000 -0.067832 0.997697
vn 0.000000 -0.067832 0.997697
vn 0.308305 -0.067832 0.948866
vn 0.308305 -0.067832 0.948866
vn 0.586431 -0.067832 0.807154
vn 0.586431 -0.067832 0.807154
vn 0.807154 -0.067832 0.586432
vn 0.807154 -0.067832 0.586432
vn 0.948866 -0.067832 0.308305
vn 0.948866 -0.067832 0.308305
vn 0.997697 -0.067832 0.000001
vn 0.997697 -0.067832 0.000001
vn 0.000000 -1.000000 0.000000
vn 0.000000 -1.000000 0.000000
vn 0.000000 -1.000000 -0.000000
vn 0.000000 -1.000000 -0.000000
vn 0.000000 -1.000000 -0.000000
vn 0.000000 -1.000000 0.000000
vn 0.000000 -1.000000 0.000000
vn 0.000000 -1.000000 -0.000000
vn 0.000000 -1.000000 -0.000000
vn 0.000000 -1.000000 0.000000
vn 0.000000 -1.000000 0.000000
vn 0.000000 -1.000000 0.000000
vn 0.000000 -1.000000 0.000000
vn 0.000000 -1.000000 0.000000
vn 0.000000 -1.000000 0.000000
vn 0.000000 -1.000000 0.000000
vn 0.000000 -1.000000 0.000000
vn 0.000000 -1.000000 0.000000
vn 0.000000 -1.000000 -0.000000
vn 0.000000 -1.000000 -0.000000
vn 0.000000 -1.000000 0.000000
vn -0.948866 0.067832 0.308304
vn -0.948866 0.067832 0.308304
vn -0.807154 0.067832 0.586432
vn -0.807154 0.067832 0.586432
vn -0.586431 0.067832 0.807154
vn -0.586431 0.067832 0.807154
vn -0.308305 0.067832 0.948866
vn -0.308305 0.067832 0.948866
vn 0.000000 0.067832 0.997697
vn -0.000000 0.067832 0.997697
vn 0.308305 0.067832 0.948866
vn 0.308305 0.067832 0.948866
vn 0.586432 0.067832 0.807153
vn 0.586432 0.067832 0.807153
vn 0.807154 0.067832 0.586431
vn 0.807154 0.067832 0.586431
vn 0.948866 0.067832 0.308305
vn 0.948866 0.067832 0.308305
vn 0.997697 0.067832 0.000000
vn 0.997697 0.067832 0.000000
vn 0.948866 0.067832 -0.308305
vn 0.948866 0.067832 -0.308305
vn 0.807154 0.067832 -0.586432
vn 0.807154 0.067832 -0.586432
vn 0.586431 0.067832 -0.807154
vn 0.586431 0.067832 -0.807154
vn 0.308305 0.067832 -0.948866
vn 0.308305 0.067832 -0.948866
vn -0.000000 0.067832 -0.997697
vn -0.000000 0.067832 -0.997697
vn -0.308305 0.067832 -0.948866
vn -0.308305 0.067832 -0.948866
vn -0.586431 0.067832 -0.807154
vn -0.586431 0.067832 -0.807154
vn -0.807154 0.067832 -0.586431
vn -0.807154 0.067832 -0.586431
vn -0.948866 0.067832 -0.308305
vn -0.948866 0.067832 -0.308305
vn -0.997697 0.067832 -0.000001
vn -0.997697 0.067832 -0.000001
vn 0.000000 1.000000 0.000000
vn 0.000000 1.000000 0.000000
vn 0.000000 1.000000 -0.000000
vn 0.000000 1.000000 -0.000000
vn 0.000000 1.000000 0.000000
vn 0.000000 1.000000 0.000000
vn 0.000000 1.000000 0.000000
vn 0.000000 1.000000 0.000000
vn 0.000000 1.000000 0.000000
vn 0.000000 1.000000 -0.000000
vn 0.000000 1.000000 -0.000000
vn 0.000000 1.000000 -0.000000
vn 0.000000 1.000000 -0.000000
vn 0.000000 1.000000 0.000000
vn 0.000000 1.000000 -0.000000
vn 0.000000 1.000000 0.000000
vn 0.000000 1.000000 -0.000000
vn 0.000000 1.000000 -0.000000
vn 0.000000 1.000000 0.000000
vn 0.000000 1.000000 0.000000
vn 0.000000 1.000000 -0.000000
vn -0.010678 0.999886 0.010678
vn -0.010678 0.999886 0.010678
vn -0.010678 0.999886 0.010678
vn -0.010678 0.999886 0.010678
vn -0.006856 0.999886 0.013454
vn -0.006856 0.999886 0.013454
vn -0.006856 0.999886 0.013454
vn -0.006856 0.999886 0.013454
vn -0.002362 0.999886 0.014915
vn -0.002362 0.999886 0.014915
vn -0.002362 0.999886 0.014915
vn -0.002362 0.999886 0.014915
vn 0.002362 0.999886 0.014916
vn 0.002362 0.999886 0.014916
vn 0.002362 0.999886 0.014916
vn 0.002362 0.999886 0.014916
vn 0.006856 0.999886 0.013456
vn 0.006856 0.999886 0.013456
vn 0.006856 0.999886 0.013456
vn 0.006856 0.999886 0.013456
vn 0.010678 0.999886 0.010679
vn 0.010678 0.999886 0.010679
vn 0.010678 0.999886 0.010679
vn 0.010678 0.999886 0.010679
vn 0.013456 0.999886 0.006856
vn 0.013456 0.999886 0.006856
vn 0.013456 0.999886 0.006856
vn 0.013456 0.999886 0.006856
vn 0.014916 0.999886 0.002362
vn 0.014916 0.999886 0.002362
vn 0.014916 0.999886 0.002362
vn 0.014916 0.999886 0.002362
vn 0.014916 0.999886 -0.002363
vn 0.014916 0.999886 -0.002363
vn 0.014916 0.999886 -0.002363
vn 0.014916 0.999886 -0.002363
vn 0.013456 0.999886 -0.006855
vn 0.013456 0.999886 -0.006855
vn 0.013456 0.999886 -0.006855
vn 0.013456 0.999886 -0.006855
vn 0.010678 0.999886 -0.010680
vn 0.010678 0.999886 -0.010680
vn 0.010678 0.999886 -0.010680
vn 0.010678 0.999886 -0.010680
vn 0.006856 0.999886 -0.013455
vn 0.006856 0.999886 -0.013455
vn 0.006856 0.999886 -0.013455
vn 0.006856 0.999886 -0.013455
vn 0.002362 0.999886 -0.014915
vn 0.002362 0.999886 -0.014915
vn 0.002362 0.999886 -0.014915
vn 0.002362 0.999886 -0.014915
vn -0.002362 0.999886 -0.014917
vn -0.002362 0.999886 -0.014917
vn -0.002362 0.999886 -0.014917
vn -0.002362 0.999886 -0.014917
vn -0.006856 0.999886 -0.013455
vn -0.006856 0.999886 -0.013455
vn -0.006856 0.999886 -0.013455
vn -0.006856 0.999886 -0.013455
vn -0.010678 0.999886 -0.010678
vn -0.010678 0.999886 -0.010678
vn -0.010678 0.999886 -0.010678
vn -0.010678 0.999886 -0.010678
vn -0.013456 0.999886 -0.006856
vn -0.013456 0.999886 -0.006856
vn -0.013456 0.999886 -0.006856
vn -0.013456 0.999886 -0.006856
vn -0.014916 0.999886 -0.002362
vn -0.014916 0.999886 -0.002362
vn -0.014916 0.999886 -0.002362
vn -0.014916 0.999886 -0.002362
vn -0.014916 0.999886 0.002363
vn -0.014916 0.999886 0.002363
vn -0.014916 0.999886 0.002363
vn -0.014916 0.999886 0.002363
vn -0.013456 0.999886 0.006855
vn -0.013456 0.999886 0.006855
vn -0.013456 0.999886 0.006855
vn -0.013456 0.999886 0.006855
s 1
g Bucket_geo
usemtl initialShadingGroup
f 1/21/1 2/22/2 22/43/3 21/42/4
f 2/22/2 3/23/5 23/44/6 22/43/3
f 3/23/5 4/24/7 24/45/8 23/44/6
f 4/24/7 5/25/9 25/46/10 24/45/8
f 5/25/9 6/26/11 26/47/12 25/46/10
f 6/26/11 7/27/13 27/48/14 26/47/12
f 7/27/13 8/28/15 28/49/16 27/48/14
f 8/28/15 9/29/17 29/50/18 28/49/16
f 9/29/17 10/30/19 30/51/20 29/50/18
f 10/30/19 11/31/21 31/52/22 30/51/20
f 11/31/21 12/32/23 32/53/24 31/52/22
f 12/32/23 13/33/25 33/54/26 32/53/24
f 13/33/25 14/34/27 34/55/28 33/54/26
f 14/34/27 15/35/29 35/56/30 34/55/28
f 15/35/29 16/36/31 36/57/32 35/56/30
f 16/36/31 17/37/33 37/58/34 36/57/32
f 17/37/33 18/38/35 38/59/36 37/58/34
f 18/38/35 19/39/37 39/60/38 38/59/36
f 19/39/37 20/40/39 40/61/40 39/60/38
f 20/40/39 1/41/1 21/62/4 40/61/40
s 2
f 2/2/41 1/1/42 41/63/43
f 3/3/44 2/2/41 41/63/43
f 4/4/45 3/3/44 41/63/43
f 5/5/46 4/4/45 41/63/43
f 6/6/47 5/5/46 41/63/43
f 7/7/48 6/6/47 41/63/43
f 8/8/49 7/7/48 41/63/43
f 9/9/50 8/8/49 41/63/43
f 10/10/51 9/9/50 41/63/43
f 11/11/52 10/10/51 41/63/43
f 12/12/53 11/11/52 41/63/43
f 13/13/54 12/12/53 41/63/43
f 14/14/55 13/13/54 41/63/43
f 15/15/56 14/14/55 41/63/43
f 16/16/57 15/15/56 41/63/43
f 17/17/58 16/16/57 41/63/43
f 18/18/59 17/17/58 41/63/43
f 19/19/60 18/18/59 41/63/43
f 20/20/61 19/19/60 41/63/43
f 1/1/42 20/20/61 41/63/43
s 3
f 42/64/62 62/65/63 63/66/64 43/67/65
f 43/67/65 63/66/64 64/68/66 44/69/67
f 44/69/67 64/68/66 65/70/68 45/71/69
f 45/71/69 65/70/68 66/72/70 46/73/71
f 46/73/71 66/72/70 67/74/72 47/75/73
f 47/75/73 67/74/72 68/76/74 48/77/75
f 48/77/75 68/76/74 69/78/76 49/79/77
f 49/79/77 69/78/76 70/80/78 50/81/79
f 50/81/79 70/80/78 71/82/80 51/83/81
f 51/83/81 71/82/80 72/84/82 52/85/83
f 52/85/83 72/84/82 73/86/84 53/87/85
f 53/87/85 73/86/84 74/88/86 54/89/87
f 54/89/87 74/88/86 75/90/88 55/91/89
f 55/91/89 75/90/88 76/92/90 56/93/91
f 56/93/91 76/92/90 77/94/92 57/95/93
f 57/95/93 77/94/92 78/96/94 58/97/95
f 58/97/95 78/96/94 79/98/96 59/99/97
f 59/99/97 79/98/96 80/100/98 60/101/99
f 60/101/99 80/100/98 81/102/100 61/103/101
f 61/103/101 81/102/100 62/104/63 42/105/62
s 4
f 43/106/102 82/107/103 42/108/104
f 44/109/105 82/107/103 43/106/102
f 45/110/106 82/107/103 44/109/105
f 46/111/107 82/107/103 45/110/106
f 47/112/108 82/107/103 46/111/107
f 48/113/109 82/107/103 47/112/108
f 49/114/110 82/107/103 48/113/109
f 50/115/111 82/107/103 49/114/110
f 51/116/112 82/107/103 50/115/111
f 52/117/113 82/107/103 51/116/112
f 53/118/114 82/107/103 52/117/113
f 54/119/115 82/107/103 53/118/114
f 55/120/116 82/107/103 54/119/115
f 56/121/117 82/107/103 55/120/116
f 57/122/118 82/107/103 56/121/117
f 58/123/119 82/107/103 57/122/118
f 59/124/120 82/107/103 58/123/119
f 60/125/121 82/107/103 59/124/120
f 61/126/122 82/107/103 60/125/121
f 42/108/104 82/107/103 61/126/122
s off
f 22/43/123 23/44/124 64/68/125 63/66/126
f 23/44/127 24/45/128 65/70/129 64/68/130
f 24/45/131 25/46/132 66/72/133 65/70/134
f 25/46/135 26/47/136 67/74/137 66/72/138
f 26/47/139 27/48/140 68/76/141 67/74/142
f 27/48/143 28/49/144 69/78/145 68/76/146
f 28/49/147 29/50/148 70/80/149 69/78/150
f 29/50/151 30/51/152 71/82/153 70/80/154
f 30/51/155 31/52/156 72/84/157 71/82/158
f 31/52/159 32/53/160 73/86/161 72/84/162
f 32/53/163 33/54/164 74/88/165 73/86/166
f 33/54/167 34/55/168 75/90/169 74/88/170
f 34/55/171 35/56/172 76/92/173 75/90/174
f 35/56/175 36/57/176 77/94/177 76/92/178
f 36/57/179 37/58/180 78/96/181 77/94/182
f 37/58/183 38/59/184 79/98/185 78/96/186
f 38/59/187 39/60/188 80/100/189 79/98/190
f 39/60/191 40/61/192 81/102/193 80/100/194
f 40/61/195 21/62/196 62/104/197 81/102/198
f 21/42/199 22/43/200 63/66/201 62/65/202
