{
    "asset": {
        "version": "2.0",
        "generator": "Open Asset Import Library (assimp v3.1.206520482)"
    },
    "accessors": [
        {
            "bufferView": 0,
            "byteOffset": 0,
            "componentType": 5126,
            "count": 26640,
            "type": "VEC3",
            "max": [
                0.9999998807907105,
                0.07361209392547608,
                0.12005799263715744
            ],
            "min": [
                -1.0,
                -0.07361209392547608,
                -0.12005799263715744
            ]
        },
        {
            "bufferView": 1,
            "byteOffset": 0,
            "componentType": 5126,
            "count": 26640,
            "type": "VEC3",
            "max": [
                1.0,
                1.0,
                1.0
            ],
            "min": [
                -1.0,
                -1.0,
                -1.0
            ]
        },
        {
            "bufferView": 2,
            "byteOffset": 0,
            "componentType": 5126,
            "count": 26640,
            "type": "VEC2",
            "max": [
                0.9816229343414307,
                0.9980079531669617
            ],
            "min": [
                0.0019593273755162956,
                0.0019919872283935549
            ]
        },
        {
            "bufferView": 3,
            "byteOffset": 0,
            "componentType": 5123,
            "count": 26640,
            "type": "SCALAR",
            "max": [
                26639.0
            ],
            "min": [
                0.0
            ]
        }
    ],
    "buffers": [
        {
            "byteLength": 905760,
            "uri": "C:/Users/anva0003/Desktop/longTable.bin"
        }
    ],
    "bufferViews": [
        {
            "buffer": 0,
            "byteOffset": 0,
            "byteLength": 319680,
            "target": 34962
        },
        {
            "buffer": 0,
            "byteOffset": 319680,
            "byteLength": 319680,
            "target": 34962
        },
        {
            "buffer": 0,
            "byteOffset": 639360,
            "byteLength": 213120,
            "target": 34962
        },
        {
            "buffer": 0,
            "byteOffset": 852480,
            "byteLength": 53280,
            "target": 34963
        }
    ],
    "materials": [
        {
            "name": "lambert2",
            "pbrMetallicRoughness": {
                "baseColorFactor": [
                    0.1354999989271164,
                    0.11590000241994858,
                    0.08089999854564667,
                    1.0
                ],
                "metallicFactor": 0.0
            }
        }
    ],
    "meshes": [
        {
            "name": "pCube1",
            "primitives": [
                {
                    "mode": 4,
                    "material": 0,
                    "indices": 3,
                    "attributes": {
                        "POSITION": 0,
                        "NORMAL": 1,
                        "TEXCOORD_0": 2
                    }
                }
            ]
        }
    ],
    "nodes": [
        {
            "matrix": [
                16.015399932861329,
                0.0,
                0.0,
                0.0,
                0.0,
                16.015399932861329,
                0.0,
                0.0,
                0.0,
                0.0,
                16.015399932861329,
                0.0,
                0.0,
                1.1789265871047974,
                -0.0005909204483032227,
                1.0
            ],
            "children": [
                1
            ]
        },
        {
            "name": "pCube1",
            "mesh": 0
        }
    ],
    "scenes": [
        {
            "nodes": [
                0
            ]
        }
    ],
    "scene": 0
}